{
	"asset":{
		"generator":"Khronos glTF Blender I/O v4.1.63",
		"version":"2.0"
	},
	"extensionsUsed":[
		"KHR_materials_specular",
		"KHR_materials_ior"
	],
	"scene":0,
	"scenes":[
		{
			"name":"Scene",
			"nodes":[
				0
			]
		}
	],
	"nodes":[
		{
			"mesh":0,
			"name":"Sniper_Ammo",
			"rotation":[
				0,
				0,
				0.04551221802830696,
				0.9989637732505798
			],
			"translation":[
				-0.7985104918479919,
				1.0720980167388916,
				0
			]
		}
	],
	"materials":[
		{
			"doubleSided":true,
			"extensions":{
				"KHR_materials_specular":{},
				"KHR_materials_ior":{
					"ior":1.4500000476837158
				}
			},
			"name":"KSR29sniperrifle",
			"pbrMetallicRoughness":{}
		}
	],
	"meshes":[
		{
			"name":"Cube.007",
			"primitives":[
				{
					"attributes":{
						"POSITION":0,
						"NORMAL":1,
						"TEXCOORD_0":2
					},
					"indices":3,
					"material":0
				}
			]
		}
	],
	"accessors":[
		{
			"bufferView":0,
			"componentType":5126,
			"count":4672,
			"max":[
				5.586103439331055,
				1.7419750690460205,
				0.6172598600387573
			],
			"min":[
				-4.225624084472656,
				-1.2529373168945312,
				-0.6172598600387573
			],
			"type":"VEC3"
		},
		{
			"bufferView":1,
			"componentType":5126,
			"count":4672,
			"type":"VEC3"
		},
		{
			"bufferView":2,
			"componentType":5126,
			"count":4672,
			"type":"VEC2"
		},
		{
			"bufferView":3,
			"componentType":5123,
			"count":13068,
			"type":"SCALAR"
		}
	],
	"bufferViews":[
		{
			"buffer":0,
			"byteLength":56064,
			"byteOffset":0,
			"target":34962
		},
		{
			"buffer":0,
			"byteLength":56064,
			"byteOffset":56064,
			"target":34962
		},
		{
			"buffer":0,
			"byteLength":37376,
			"byteOffset":112128,
			"target":34962
		},
		{
			"buffer":0,
			"byteLength":26136,
			"byteOffset":149504,
			"target":34963
		}
	],
	"buffers":[
		{
			"byteLength":175640,
			"uri":"Sniper.bin"
		}
	]
}
